# xmcd
#
# Track frame offsets:
# 150
# 54950
# 79089
# 112645
# 156756
# 205523
# 255100
# 255713
# 257281
# 258783
# 260213
# 262102
# 264396
# 266552
# 270469
# 274974
# 277466
# 279803
# 283572
# 289035
# 294954
# 297142
# 300480
# 305408
# 311498
# 319227
# 331566
# 333711
# 336444
# 338451
# 345827
# 349566
#
# Disc length: 4732 seconds
#
#
# Revision: 0
# Processed by: cddbd v1.4PL0 Copyright (c) Steve Scherf et al.
# Submitted via: FreeRIP 2.21 
#
DISCID=d6127a20
DTITLE=Sergei Rachmaninov - Concerti per piano ed orchestra N° 1 e 2 - Variazi
DYEAR=1900
DGENRE=
TTITLE0=Concerto in Fa diesis minore n° 1 op 1- Vivace
TTITLE1=Concerto in Fa diesis minore n° 1 op 1-Andante
TTITLE2=Concerto in Fa diesis minore n° 1 op 1-Allegro vivace
TTITLE3=Concerto in Do minore n° 2 op 18- Moderato Allegro
TTITLE4=Concerto in Do minore n° 2 op 18- Allegro sostenuto
TTITLE5=Concerto in Do minore n° 2 op 18- Allegro scherzando
TTITLE6=Rapsodia su un tema di Paganini per piano ed orchestra op. 43- Introduzione Allegro vivace
TTITLE7=Rapsodia su un tema di Paganini per piano ed orchestra op. 43-Variazione I (Precedente)
TTITLE8=Rapsodia su un tema di Paganini per piano ed orchestra op. 43- Tema I -l'istesso tempo
TTITLE9=Rapsodia su un tema di Paganini per piano ed orchestra op. 43- II: l'istesso tempo
TTITLE10=Rapsodia su un tema di Paganini per piano ed orchestra op. 43- III: l'istesso tempo
TTITLE11=Rapsodia su un tema di Paganini per piano ed orchestra op. 43- VI: Piu vivo
TTITLE12=Rapsodia su un tema di Paganini per piano ed orchestra op. 43- V: Tempo precedente
TTITLE13=Rapsodia su un tema di Paganini per piano ed orchestra op. 43- VI: l'istesso tempo
TTITLE14=Rapsodia su un tema di Paganini per piano ed orchestra op. 43- VII: meno mosso a tempo moderato
TTITLE15=Rapsodia su un tema di Paganini per piano ed orchestra op. 43- VIII: Tempo I
TTITLE16=Rapsodia su un tema di Paganini per piano ed orchestra op. 43- IX: l'istesso tempo
TTITLE17=Rapsodia su un tema di Paganini per piano ed orchestra op. 43- X: Poco marcato
TTITLE18=Rapsodia su un tema di Paganini per piano ed orchestra op. 43- XI: Moderato
TTITLE19=Rapsodia su un tema di Paganini per piano ed orchestra op. 43- XII: Tempo di minuetto
TTITLE20=Rapsodia su un tema di Paganini per piano ed orchestra op. 43- XIII: allegro
TTITLE21=Rapsodia su un tema di Paganini per piano ed orchestra op. 43- XIV: l'istesso tempo
TTITLE22=Rapsodia su un tema di Paganini per piano ed orchestra op. 43- XV: Piu vivo scherzando
TTITLE23=Rapsodia su un tema di Paganini per piano ed orchestra op. 43- XVI: Allegretto
TTITLE24=Rapsodia su un tema di Paganini per piano ed orchestra op. 43- XVII: [Allegretto]
TTITLE25=Rapsodia su un tema di Paganini per piano ed orchestra op. 43- XVIII: Andante cantabile
TTITLE26=Rapsodia su un tema di Paganini per piano ed orchestra op. 43- XIX: A tempo vivace
TTITLE27=Rapsodia su un tema di Paganini per piano ed orchestra op. 43- XX: Un poco piu vivo
TTITLE28=Rapsodia su un tema di Paganini per piano ed orchestra op. 43- XXI: Un poco piu vivo
TTITLE29=Rapsodia su un tema di Paganini per piano ed orchestra op. 43- XXII: Un poco piu vivo (alla breve)
TTITLE30=Rapsodia su un tema di Paganini per piano ed orchestra op. 43- XXIII: l'istesso tempo
TTITLE31=Rapsodia su un tema di Paganini per piano ed orchestra op. 43- XXIV: A tempo un poco meno mosso
EXTD=Piano: Sergei Rachmaninov\nThe Philadelphia Orchestra \n    Eugene Ormandy\n    Leopold Stokowski
EXTT0=
EXTT1=
EXTT2=
EXTT3=
EXTT4=
EXTT5=
EXTT6=
EXTT7=
EXTT8=
EXTT9=
EXTT10=
EXTT11=
EXTT12=
EXTT13=
EXTT14=
EXTT15=
EXTT16=
EXTT17=
EXTT18=
EXTT19=
EXTT20=
EXTT21=
EXTT22=
EXTT23=
EXTT24=
EXTT25=
EXTT26=
EXTT27=
EXTT28=
EXTT29=
EXTT30=
EXTT31=
PLAYORDER=
